
<svg version="1.0" xmlns="http://www.w3.org/2000/svg"
 width="1275.000000pt" height="1651.000000pt" viewBox="0 0 1275.000000 1651.000000"
 preserveAspectRatio="xMidYMid meet">
<metadata>
Created by potrace 1.16, written by Peter Selinger 2001-2019
</metadata>
<g transform="translate(0.000000,1651.000000) scale(0.100000,-0.100000)"
fill="#000000" stroke="none">
<path d="M1240 15300 c0 -5 5 -10 10 -10 6 0 10 5 10 10 0 6 -4 10 -10 10 -5
0 -10 -4 -10 -10z"/>
<path d="M1700 15235 c0 -43 4 -75 10 -75 6 0 10 17 10 39 0 39 20 68 40 56 5
-3 10 -26 10 -51 0 -24 5 -44 10 -44 12 0 13 80 1 99 -5 8 -19 12 -35 9 -22
-4 -26 -2 -26 18 0 13 -4 24 -10 24 -6 0 -10 -32 -10 -75z"/>
<path d="M1990 15300 c0 -5 5 -10 10 -10 6 0 10 5 10 10 0 6 -4 10 -10 10 -5
0 -10 -4 -10 -10z"/>
<path d="M2080 15235 c0 -43 4 -75 10 -75 6 0 10 8 10 18 0 31 11 33 32 7 28
-36 43 -31 18 6 -21 29 -21 31 -4 50 9 10 14 22 10 26 -4 4 -18 -6 -31 -22
l-24 -30 -1 48 c0 26 -4 47 -10 47 -6 0 -10 -32 -10 -75z"/>
<path d="M1223 15263 c13 -3 17 -15 17 -48 0 -37 -3 -44 -22 -48 -13 -2 2 -4
32 -4 30 0 45 2 33 4 -20 4 -23 11 -23 54 0 47 -1 49 -27 48 -17 -1 -21 -3
-10 -6z"/>
<path d="M1320 15213 c0 -29 5 -53 10 -53 6 0 10 20 10 44 0 25 5 48 10 51 6
4 10 -13 10 -44 0 -28 5 -51 10 -51 6 0 10 20 10 44 0 25 5 48 10 51 6 4 10
-13 10 -44 0 -29 5 -51 11 -51 6 0 9 21 7 53 l-3 52 -47 1 -48 1 0 -54z"/>
<path d="M1587 15264 c-18 -18 -5 -43 28 -54 19 -6 35 -16 35 -21 0 -17 -32
-23 -52 -10 -16 10 -19 10 -16 -1 3 -7 19 -13 39 -13 28 0 35 4 37 23 3 18 -3
25 -27 33 -17 6 -31 17 -31 25 0 17 31 18 49 2 11 -11 13 -10 9 2 -5 16 -59
26 -71 14z"/>
<path d="M1835 15259 c-4 -6 -4 -13 0 -17 3 -3 10 0 15 7 8 14 40 9 40 -7 0
-4 -15 -12 -32 -17 -26 -8 -33 -15 -33 -35 0 -24 3 -25 55 -26 30 -1 49 1 43
3 -7 3 -13 20 -13 38 0 18 -3 40 -6 49 -7 18 -59 22 -69 5z m55 -58 c0 -14
-28 -33 -40 -26 -20 12 -10 35 15 35 14 0 25 -4 25 -9z"/>
<path d="M1973 15263 c13 -3 17 -15 17 -48 0 -37 -3 -44 -22 -48 -13 -2 2 -4
32 -4 30 0 45 2 33 4 -20 4 -23 11 -23 54 0 47 -1 49 -27 48 -17 -1 -21 -3
-10 -6z"/>
</g>
</svg>
